<svg xmlns="http://www.w3.org/2000/svg" width="336" height="336" preserveAspectRatio="xMidYMid meet" version="1.0" viewBox="0 0 252 252"><metadata>Created by potrace 1.11, written by Peter Selinger 2001-2013</metadata><g fill="#000" stroke="none"><path d="M23 2510 c-18 -5 -18 -52 -17 -1245 1 -682 2 -1245 3 -1252 1 -9 300 -11 1253 -10 l1253 2 0 1243 c0 683 -2 1248 -5 1255 -4 9 -274 12 -1237 12 -677 0 -1240 -2 -1250 -5z m2392 -1240 c1 -624 -1 -1142 -3 -1151 -3 -16 -96 -17 -1155 -17 l-1152 1 0 1153 0 1154 1155 -2 1155 -3 0 -1135z" transform="translate(0.000000,252.000000) scale(0.100000,-0.100000)"/><path d="M1435 1504 l-477 -477 -171 171 c-160 159 -182 176 -214 173 -15 -1 -223 -209 -223 -223 0 -5 4 -18 10 -28 12 -23 545 -557 576 -577 16 -10 28 -12 41 -4 10 5 282 274 606 598 384 385 587 595 587 608 0 28 -209 235 -237 235 -15 0 -164 -142 -498 -476z" transform="translate(0.000000,252.000000) scale(0.100000,-0.100000)"/></g></svg>